<mxfile host="app.diagrams.net" modified="2024-05-29T08:41:52.091Z" agent="Mozilla/5.0 (Macintosh; Intel Mac OS X 10_15_7) AppleWebKit/537.36 (KHTML, like Gecko) Chrome/125.0.0.0 Safari/537.36" etag="KZOXFdW7ruef1ArbnXI6" version="24.4.9" type="device">
  <diagram name="Page-1" id="6AuX2hm6AgCBlmGZWkzD">
    <mxGraphModel dx="2139" dy="879" grid="1" gridSize="10" guides="1" tooltips="1" connect="1" arrows="1" fold="1" page="1" pageScale="1" pageWidth="827" pageHeight="1169" math="0" shadow="0">
      <root>
        <mxCell id="0" />
        <mxCell id="1" parent="0" />
        <mxCell id="3u2YojZL_NNNf5w3evhY-12" style="edgeStyle=orthogonalEdgeStyle;rounded=1;orthogonalLoop=1;jettySize=auto;html=1;exitX=1;exitY=0.5;exitDx=0;exitDy=0;entryX=0.5;entryY=0;entryDx=0;entryDy=0;curved=0;flowAnimation=1;" parent="1" source="3u2YojZL_NNNf5w3evhY-52" target="3u2YojZL_NNNf5w3evhY-10" edge="1">
          <mxGeometry relative="1" as="geometry" />
        </mxCell>
        <mxCell id="3u2YojZL_NNNf5w3evhY-80" style="edgeStyle=orthogonalEdgeStyle;rounded=1;orthogonalLoop=1;jettySize=auto;html=1;exitX=0.25;exitY=1;exitDx=0;exitDy=0;entryX=0.25;entryY=0;entryDx=0;entryDy=0;endArrow=none;endFill=0;curved=0;flowAnimation=1;" parent="1" source="3u2YojZL_NNNf5w3evhY-9" target="3u2YojZL_NNNf5w3evhY-53" edge="1">
          <mxGeometry relative="1" as="geometry" />
        </mxCell>
        <mxCell id="3u2YojZL_NNNf5w3evhY-85" style="edgeStyle=orthogonalEdgeStyle;rounded=1;orthogonalLoop=1;jettySize=auto;html=1;exitX=0.5;exitY=0;exitDx=0;exitDy=0;entryX=0;entryY=0.5;entryDx=0;entryDy=0;curved=0;endArrow=none;endFill=0;flowAnimation=1;" parent="1" source="3u2YojZL_NNNf5w3evhY-9" target="3u2YojZL_NNNf5w3evhY-52" edge="1">
          <mxGeometry relative="1" as="geometry" />
        </mxCell>
        <mxCell id="3u2YojZL_NNNf5w3evhY-9" value="Cortisol" style="rounded=1;absoluteArcSize=1;arcSize=14;whiteSpace=wrap;strokeWidth=2;shadow=1;fontSize=13;" parent="1" vertex="1">
          <mxGeometry y="240" width="80" height="40" as="geometry" />
        </mxCell>
        <mxCell id="3u2YojZL_NNNf5w3evhY-78" style="edgeStyle=orthogonalEdgeStyle;rounded=1;orthogonalLoop=1;jettySize=auto;html=1;exitX=0.75;exitY=1;exitDx=0;exitDy=0;entryX=1;entryY=0.5;entryDx=0;entryDy=0;endArrow=none;endFill=0;curved=0;flowAnimation=1;" parent="1" source="3u2YojZL_NNNf5w3evhY-10" target="3u2YojZL_NNNf5w3evhY-53" edge="1">
          <mxGeometry relative="1" as="geometry" />
        </mxCell>
        <mxCell id="3u2YojZL_NNNf5w3evhY-84" style="edgeStyle=orthogonalEdgeStyle;rounded=1;orthogonalLoop=1;jettySize=auto;html=1;exitX=0.5;exitY=1;exitDx=0;exitDy=0;entryX=1;entryY=0.5;entryDx=0;entryDy=0;curved=0;endArrow=none;endFill=0;flowAnimation=1;" parent="1" source="3u2YojZL_NNNf5w3evhY-10" target="3u2YojZL_NNNf5w3evhY-56" edge="1">
          <mxGeometry relative="1" as="geometry" />
        </mxCell>
        <mxCell id="3u2YojZL_NNNf5w3evhY-10" value="Cortisone" style="rounded=1;absoluteArcSize=1;arcSize=14;whiteSpace=wrap;strokeWidth=2;shadow=1;fontSize=13;" parent="1" vertex="1">
          <mxGeometry x="120" y="240" width="80" height="40" as="geometry" />
        </mxCell>
        <mxCell id="3u2YojZL_NNNf5w3evhY-17" value="" style="shape=image;verticalLabelPosition=bottom;labelBackgroundColor=default;verticalAlign=top;aspect=fixed;imageAspect=0;image=data:image/png,iVBORw0KGgoAAAANSUhEUgAAAgAAAAIACAMAAADDpiTIAAAArlBMVEUAAAAAAAAAAAAAAAAAAAAAAAAAAAAAAAAAAAAAAAAAAAAAAAAAAAAAAAAAAAAAAAAAAAAAAAAAAAAAAAAAAAAAAAAAAAAAAAAAAAAAAAAAAAAAAAAAAAAAAAAAAAAAAAAAAAAAAAAAAAAAAAAAAAAAAAAAAAAAAAAAAAAAAAAAAAAAAAAAAAAAAAAAAAAAAAAAAAAAAAAAAAAAAAAAAAAAAAAAAAAAAAAAAAAAAABeyFOlAAAAOXRSTlMABc82TTvH+7f0CAz42OPd650kENOFE7wtwe+jqVsyf+d6i0coVmtmy3UgHVEXrpgas3CQlUI/Y19QIUeCAAAg80lEQVR42uzaWbaaQBCA4WJUREQQES6jiChOiIra+99Yrjl5SHKiAQcErG8L/+mueihoLkpfGtxkeori8TA4KJadtkcmz9OaJMu9C9/3+/2+f9G7kL9JkvaNpun5BV81ZjtNN3YSePFsxakioD/p4XE18/ZWyku+QJpPkNqHeBVS8NmoxdGJ9xte7pLP1NXs8WQAn0d0p2PFlFsEfZOskwqfYpntErOH0f/Ws846NFvHPe3NL0x9VYsfG9BMlDtL5vjf5yB5KjTMehWYApbNj5+J0BSLsyJh0cKEJIT6WzsK7np3G02gzqgs0DDiY+gp1NR2tsGZ/wwaC/VjjHnc9p/GZKBW3CGufE9mraEuDKz/Cl8R1MEyprHVi5gqVJx4HuHcfyFhBlXGKbjzv9pmABWlxzj4yyC7UEUMPv6yCFOoms55jl1K5EGlrD2fvEyr39P49sY6DL3x7uRM2YxjXCNUF8utPhiIF51fxJ8Guq6v19vlcrFQVTUMQ8NwXZdhuOpgOO6YsU4UD5V07pM7HKA6DKVLnkyQTfvg7ZyJuxCh8TrhJDqMfFKIRUE1HFPyNP25HcTOMRThE61Zr/1FcrMpqIAVT56hN0rilYH38UC5u1Qg+SjwbpSjPZ4+Dc7MAMv/psMmPskjeHP+s0Qe0aKViMP0/0RNlDzDIII3ch7JL1s7poOdbxFPc/I/rQzehdXuP3cOWB375uHaLXKbv4W34Mx74w8z3PQKUJMuucmkoHzqhtxDPrA48QtTbXJTDGUb7LuksG4aqRjzPsyc3NANoVRU1CdF9ZUV/vsPoHYCuc6EMnE0KchPMgobPmjBk+ucH+zd53bjOJMG4KISxEzlLFHZyrJsyX7v/8b27OzufDNtMJgEIGrJ538fdzdpEKgqVJEypxF+x8vl0zfKx4rgQ67WYQjiGKTI1sNv6OOKRrmjHd8tAGD1ColU0RHkRkr0B/iNwZdJ+WPuHPyt1iSBpg4C+AbJp80sxOd0VpRDxtzDPw2rJFDTRYAtSTctIb7eWqM8qrj4g94ngfYu+Nryf/0Z4vIWTcql1gg/tTUSaOWBr0pS9UuIy96YlE8PR0G+7sGeURmwsxBTr0J5tWXgskmoHbg8jaQ59BAPG08ptz4QpE9C9cC1JFkqHmKxLk3KrwYCfZFQKws8HySH8YFY9I8r5dhIYQH/AjwlkmL/hjj0xYnybIEQHRKrq4ODtZ63/FufV8q1DcLc1Gw37iSc1kEMbLSnfKsycMh7Mn1F+YBWHTHU+5RzXQdhdINEa4PjQoKtbERrL4tU/RmhLoq2HHUSqzJEJG9TVHrQEaH0g6If2SahbgxR2KWo7SYyHYTakngrcPgkkNZApLdp8fSJaPaEu1sGOHQSx6wjyrBY/f/SHSKEdSMpGH5iJMy1hCjna/Hs/9IJzY2sSA5d6guwchHBXxdP/n8YHoIMOweSBRwWCTL1EGFcbP7+zzcCsM8WSXMFh0di3HWE84pf//8YgM9bkkRVcLgkRMVCuHrx9f+PPficJsl0k3c/aMIQyroVTz3qSQBe8wmxxxEJ8MUQyu4XD/1v3X518JSmDdoQHDMFz39U3PD8b2Z1+1G39ac17qmAZy2wrJFP/yqePR2+GiWGUL75lPKjJqX1zRDGnRZ9mz5tRLuRXF1LzilwzRCm3sp91y4PcegmybUDz5lSOjKE6WiUZ/uZg5jGJJfhS7l/crcQwppQnlXHDLFNnnP03FMqZR0h/DLl2LKG39iTVC0PPG9i7hzytfeUX48BfmVIcl1ktAq7OgjRa1Fu7cf4pRJJdQcXu1IKrVJEV/q8MmY6fqtHMp18QHhFqNZDiAXlVrkNZOsFMAbgq0i61wjsKK+0BUMCNZJHG4PP1Si5OYKxLeXV6g2JuE94/thJCgCxCeXVREcyFslivCOAZ1JifR2B2Dq/yz8S25Mc5gBB5pRY10UgdqSc6vaQXIWkuJZkpB+1XvH8f9rbSKFDMvQdKS1IFsXz/2nqI40BSXAfIlBJo6TWxf7vp+oQqbAuCbdhCMTKlNRKD1tWcuqhI6UNCaZd5ETqjHYR/0n1/HVbSdvWaw0hbIOSahTx3x+mQ8TB2o3No0tUAs+RRHr4CGFNKakJAo0op1YeovmNdSu0XZNrqmvSvKGkmjqC9DTKp6uDKMPLQ6O/VWRXhV17CDWipLQ3BGmblE9mCRHaf8zAMHRwNQw1bfoGhoR77f6e8kl7R7i3Cv0pMD231Sg1s4FwdldCazt9WrT75HKPv+oQ1e5TSg8X4ewrJWW6CLKmnFojjD43iEPzEUS/p2zSzBDOPVBiFwTpUE6tdIQYNKM/pUKnxdxdRGifKLElgrxTThltBGM7CnKyZATpuyNEqXUpsZaDAHaLcuqCYE6Zgn0i2Dclom09RKmbMooA9X7R7vOnwYlCXHUEehMwKpqvoVFy95A3NqdOfvKy+BmCXenXug0muebAsBGgUfR7TjCKxbAFVgdptyEisS85rQ3bRnECTPK7VmXCkupHG9G8B6WxYuDTV5RTXT/dWrsQ9AJMB+AQfVNzgADbYuJXwlFcWk/EJ+DQYIjhbEpqbXmmvKqmzrV17dSbwO7CQgxsTum0fPD5XcoprZQ+13Zw0t0UNudDxOHfpc23XFJebRHA7aYd7L6lWLSNj1h6J0qpz8B3obxqeULSoqe3pIPDtW8XsbCZJmvuLByzaPifMipmXJK9Qcc24nGrlFql+AD86WAJK7Y6OvgnvULRlm+IadSi1DS7CAFyjoDCCjvNjo6/uWWKxOk1LLVH/6Y4AcQNi7EqJdHt+PiLezMoyvQdcb2fSADTL4qA/jQSfTFCK3/NZ999irQaIy5vQkLMiiIQzgIg8LpN6rAf36hLQpx0cOn7YgFQMImbH/aLZi9JkE/wzSm3muwZN6OM+RBx6XND9nnHNYiKOrB/0a8kj7Z1ENv7Xn7RW4Vy62qpvxpdsRGbW1Gw2tWLqZ8K18R+D0pX/+iAB1sVUz+V9Xs/XRjiYo0TibRn4PokKtKAyXK4gsr9+Hp9NRHPYZfyq600L3K3EZtdEZ/yKI6Af3qo7PV7HSM250sj0T7A5RiUX2N1C4C2GSKu4dwg4bp6UQca81LfG4k3rSEufdEiCWbgsjXKr52qxJjRYYiJXQ6Kzzs5ZoPHJtGqNmJioybJsUFgP7uiFlzuR9FYMMR07pMsdlEGEPNcPDRJqH4JMdXLJE2lWAB+MHQVDTJ3FuKp3UmiXrEAxLwOyvYk0LWHeEoVkqlfHAF+epdfG7X0EYu9JrkuRTvwH7pMdmpc6yAWZ6uRXC0dPI5GRR5I3v/JqZcg7Kf0DHijPOtJbpFXdlSF/aK1g847OXZi4GmSIN8WYhgdSIFHMRAg7hdgoHTm3KD8zMJndqA8q8uMApp1RHPXxKFuCzimPGtZ4LC6JMKhlKDcT/kWsEp5NpEYBOg7iHQ+kDKlwLK3ohRERmT0PkQUd0nq9ItCkJ+0ITh0k9I7WohgzQxSaFGcAX+6S+uS9s0QodcklTQ/rPtdMRlEcHXMDRGGW1JrCa4mUVEL9AerRWntEKF+zcbt5wHl2l7SFbk5wulbUs3Ui6bwP23lDPydIVxtn5Xzrm4Wh8CfDnK//6yjkXrvRUuwnzRPRmRki1DO/TkRzyIK+FNZRiZ4wqJbvKr3La3yvbs/0auaS/itODKE6WhZqnubU0rH8xCA/j7R/v/Uggw1SqGqI8SwkqmcF/aUSrUtMqitnqaD4yxv5ry9ylbOq0apbBj+4dOgV1MVfgg8uQjRa2VsEtZN6Lai3aQXMxcdGzXfEGKkZezuC7tSCn1LxQdO/cbIlzNxDpjR81TAMxC9gWI3eilDwVuADoKxLT1RQ3wlwPT1c4t98OykzJy31vRMPjhYV3weFZeXTwQ8KKGpjkD6PYMBrx6lUQPf54vfCmcGJdN1EUiv0lPNJOS8fNF7HfVsoX2Begg0rNJz1SREgYbAi4+caIHnQ3wGWC9n8vpriVJxEUTv00u4i3x97wxB9Ac92VrGUl1HINt44TDQiZK4+ghiLTPaAmcqr+htQa9gAA6XktAGCMKO9HQOOBwh/fX5WJmyz7DA0RBdArilp+vLOa59IliNsm8priC8zBCkQ8+3k9MBpeUg2IQybyHsaGS6CDLK7P1ny6S0pkMEalPmvYHDE7sWDrTMVj0MKL2+i0DH12wN1Uv5LYmeOa9eWd5wgNYIQXqUcWtR5xfTyXhAZAeeqeQGOGxP2TYStXe5IMgx01UPglQ98M1f8UYA+oniiXydLF+AH5EoK/8lT4JViEkFGm7WP4JTKa1Bo9Pg7PSCYwJtUWURgH+ibLhJvxS+fsVzQFtMY4g+Ax97UEacweEouGHZoQzbC0pi1JD5LZAPjpGCQZTO+N9Go1Gjcfn8WCw6s/lt8zU5Lqv95tWkZ9iJaZq9zf4peK8iQzFGCsxz33rjj9n2WG0apMibkI55XQ983jXj8Y6V6B8iiteuN2aT6uk5XwBcBYUAjpQZH+DwSawTRNPb485kaqitBYFFvzJl4BtRdtSUNIf1IAVzx/PlicSzIeIUOACf08p61cONBGtDIue8qxoK0iNAXcyHb0nZUVbTF6QEyaxBZ2nIHpyDhpAYYIMy5BYQ8BTMhgJWb14mEcyhiOj9LsEHQL2RmpnIHhTxGxVDyJWw1FdlusOXqIRoK7m9ZUIh/fzdkrRjOaYfwo8zZYnBlBTs9aGWdV4b6apBU8eB9ha49ANlSVlNe+AHlBtequIv8e3T1pMAuxe4AO2RaBU8Q/vWogTKCGSkzgK2NcqUTzWJii2eQ788NIF32vT0vWAelC01NRe3Onia4cdJVAkXnJRVNsD4JfrgTUi0MaQRPXVLK4m4zHBOtANUbwWePonmQhLxM5c3CDZIuwB0KGOO4LA0EuwEqUSOXtwPEeyccsVzTMqYmZo44ATP97ZMcARMGMRfsVcZwj9Sk6sYIwtqy7STPD4onoa0I6CSJN2GBOtayIa3dcpO7hTLgYGrQlmjWUqOqnPwjCf/9v399bXdbm67+WzW+bg0Rud6rWQ7OkSytwYFu1sINU+VBahR5jTBcyKxWl6qqgit25wuJ7fZ53jgWkjNWzQpQEVHuFuaEdx4UOZUlASCL+BhJiVwmlY2i3NJRxq9b5M45gwRtmnqCXuUPTsVgwIrgPgfc7jfLgMPSenjSYv+rVxDpAnFoDmvM4N9pKCZ73QIyCo73B87dQ/JsFqncqX/df0aIIYjxfD9Qv0QavILQqce+PYkSPOrYSMh7+191Bj3HMRTSVH+eKcM8qWXrK51QMFE2tNk5EO+ZfLShxplkAmeg+hGW4om0k7nNQa57snTQJWXmYegkzgNBPENkuB6GzBIVE16DxZtyqKj5L/q7QnjcU6bGqQpJ17zvimLdnKLVvcWggy7JM9q4UOOKUUxPPA4GmXRRW450AWB5iSVth5Ahj5F+Xqphlg9qakgbYggrkGy9RvWM16AEnj0LmWSK/UUWEWgCilw7egQbJXw3/xJmaQxqXcCvoAnV0Z2PyzFL8Ao6M9l0gEcTJO3xVR/OXI/UvoCnCzw1F+pFaJLomzAZ1VJoWoJ4jST1RMtKZvWckO0S2SiME6bMYjSTJQHtCmjdnK713RZRiqjy66iF+AIrhtl1Ifk51PPyoa49Y7fOtsJXoAeeHSTMuosuSL0np3Z0Qv8ijeh0u9fgOarjcp9k31EH2cnInZDfKxxoiQvwAe4+pRVvuy/bsvGv+hrepoN4qpP/4u9e9tKXImiMDyB2DGEQ4tIQOSMHNWNiL33fP8X2zd90RcrDlI46Kyq9T8C4wOSqkpW7rej4/BioQEATetAPXxjhyr/qNkv0yWvXGM4BtwArLUNSj5QKMG3Vp/H/F18SstzzSsXZ6se4AqgWt59QLnxVe5Zdw/dmIy78w7+cpWMXzTNHqIUgDOAG3Wz8hfX+seq7/d1lKDXKcWS6GaZ4nfOAIaUig8obf9R6Aketyhw1lMEsPxyG0Db57ml0Ak+d3f+7mS1IIAJxT61jcadQW3u8xuStACAQtsAXXWDEdfwuiPFRhcDGFFshRKXUSiC19VblHo/E0C/4GyoJFU3F60Gv1tRKqkLAIp8OjVS3xVVi0I7qM712HbkAEDRUTC5hEIpPG9OqdNlAA4NhQPS6xRqwPc6lGpeBmCicTTqgUJTeN8PSu0dAKh5HEiun3vfGuKd4OgSAGuKTRSORx/A+/aUOl0CoEmpxitKXUShd/hflULVCwBEXw2HVLYXdAf/e5DnpLkDGFBsrPG/8AP+t6DU2BnADany33RCoQn8L40ptHYG8EaxSOWKyAoBtKHQhyuAPsXaKHv/XPFNJhrmJLkCeCJ1fpWGVzjCqujyt+UIoBNT6jFF2Xun0AIBNKZU6gbgjmJzlL7smu+zVTAtte8AIPcHIN4rXRMfI4TaFIqcAAxJrWdruxTqIIRuKbRyAbCMSa3naloUekUIfVBo7gLgjWIZFPTTz/Mg7m/GcABQo9wCCoopVEEIPVMocwAwoNgGGmK4AGoU6hYHEFHuxQCUux2FpoUBVJoUa8IAQN9xyLgwgCPlRgag7CUUui8IoPdIsWbFAKi8Bd4VBHBHuREMgMpFsHExAL8o14UBKH0DCv0qBKDSpdyzAYDSndBCAGaU28AAQOlZiCIA+g3KLQwAoPQ0VAEAlQ3lMhgArbtB6wIAJpSLxwZA7SPCx/MB3MSUG8IAqH02ZHs2gPs25ZK9AVDRhEKzswG8MacZDICKZhSanAtglj8NzwDo6HgJgEXMnF5gAPwHsPzJnG5hAJS0dQdwaDOnpGMA/AeQVpnXDAbAewDpgHlVKwbAewCfA+YVj2EAvL8NbDO3CQyAWgDyQlChNhUDoH0lcHsBgGQJA6B9L2B1AYB/YQD83w7ObwgDoKqTy4GQ/JqpAfBgdtDIFUDShwHw4EzgiyuAZxgAZT1RKHIE8AADoK33bwTwBAOgrtvvAzCoG4CQAXR7MAABA2gfYAACBtDawQAEDKDVgQEIGEB7BwMQMIDuAQYgYADZPQxAwACGFRiAcAHER8AAhAtg+gkDEDCA7BUGIFwAjS1gAMIF8GMJAxAugMc1YACCBRCfejAAAQNYAAYgZAA1A2AADIABMAAGwAAYAANgAAyAATAABsAAGAADYAAMgAEwAAbAABgAA2AADMD/7N2NbuJGFIbhMQQc29iODSTgNL8YQjA47IZu8t3/jVWqttJWOkPAeNVT5nuv4RmNRhqdQwAEoLhhTAAuA8hjEIDDAC4KiL0SgAsAvGdY2hGAAwAmHdjKCODsAYQPA1h7JoBzB3ARY08fBHDeACY3+Ce+AtwDsMp8EICzAPLMBwjAVQD3tz5AAI4C8NZTAATgKIDtUwoQwNkBCIebbbXKJz8ryzxfrartZnO9rX5p/c0HCOAsAHhVb74Yv9U3/TgpfBwcAfzvAYS9l/fLdIBfIwBHAOQfWcfH3xGAawCidZYAAAjAQQDhXR0AIAA3AXSzAgABuAnAu+sDIABHAYSLFCAAVwF4L48AATgLYBYDBOAsgKoGCMBdAIsABOAugNUNQADuApgXIAB3AYQ7gADcBbDtgwAcBtBNQAAOA1gPQAAOA1j4IACHAYwBAnAYwDua5RdJGo86y/7PlsvOaBTHaepDKrj6VwMCUALgDccUdOr3p89ZN9+ExpJ3BakeZwSpBLDDocW3r7PKfF0XUimHRKkE8I6Dinfra3NgD5B6IACNAMY4oNFTaY5oCqmSABQCWODLit29OapwICLinECFAOY+vihdRObIfkBqTAD6APQG2F9655mje4JUjwDUAVhdYW9XC880qIZQ4RGANgDDEfb2dm0alUCo5qxgbQC8S+wr/mGatYHUdwLQBmCMfWWRadgMUvcEoAzAGnsK5qZxrxAKPALQBaAMYC8uTfMyCE25L0AXgHAEe5eROaEphHYEoAtABnuZZ07pEUIfBKAKwB3sjc1JRZDqEoAmAHkAa6/mtCaQGhKAIgDeEta+mxObQeiRS6M0ARi3c/7lXiDUJwBFAHp+w/u/+W+QWwLQAyBKYevtd/0wHBOAHgA72PrmmdOrIbQgADUA/oStTmRaaAqhOQFoARCmsJRsTRuNINQjAC0AnmFp0DWtlECoJAAlACa+fV9XOxUQqghACYB+iw8AOVFYRAA6AHzCUic07eRByOf6eB0AokfIBaVpqSGECgLQAeAZlj5NW1UQSglABYDch9wfprVyCMUEoAJADblkaFqrhFCHADQA6MHSzLTXBEJLAtAAoN/uC1DuHkJ9AlAA4AJySfTbAUwJQAGADuQuTJt1IXRDAP89gDnkatNqPQJQCiCGWFARgBMA5vZPgLwCXAAwgljsEcBf7N0LVuJAEIXhigNEQngr8hYEERhAEHXO3f/GZgM3MJguus9Q3xI8P5BUquNNBLA5dQVodwH/fwAlUE9iAdxEAF+g4rEFcBsB3IMaiHNdmwQGGEAXVLwW5+b2LCDAAJqg3sW9lj0NDC+AfQom/S3urUE8WABeA3gE9SkK9rYQElwASUPlC4Db2kpYcAGMQDVFQ8cCCC6AEpi4JRoqIGoWgMcAxqCGoiIBMbEAPAbQBDUWFZGdCwgsgHYZzJMoAVG2APwF8AGqIEpApBaAvwCqYKqiJbazgUEFUAS1UAyAsAC8BdAE06+IlhREZAF4CqBSBnOU6waQWACeAngDNVcMwF4QEVIASzA90VO2AAIKoAvq9doBtC0APwEcwUwiC+A2AogaYB7FAriNAApg4rUFcCMB7MDciwVwGwF0UjCvFoAChb9WbgswjcQCCEYNxFp3CHAUCyAYd5qrGnNQXQsgHD0QX6rb4EuxAMKxA7HR/H3BwgIISFPxxe3fYNKOBRCQI4iVYlzYiQUQkGe9SW3SB7OxAEKy0Duz9wqmEVkAIRnpHdnYgcdlAYSkAOJJcQz8ywIIShHEnd4YuCoWQFBaIGpqIyZMLYCwtEGkkt8a1NoCCEyq9DhwCqYnFkBgaiBaWgfC3iyA0NyBKOq8sRdpxwIIzROIgtI28E4sgNAMVL6powmYjQUQnCOIZ51t4H4i+iqws4GXmKq8wXMIpilXMLY3hOT/b84HyaedgvmWKxjZm0IvMgOxVDkSXJdreASxswCydDVmwSUwj3INBxAvFkCWDog4kjxaoOb+Jlt/LIBMZRB7pW1gfXswvyyATHXnJwOiGpgPfwsOqFgAmXrOJzYzMPHW3zVgXSyATEPnn9YdmIPHnncWQLYX18f3ttlHgvUlKYipBZDtw/XHdZU9BtY3AzOzALIVXG8FVsG8e/w+Q8cCyNYF0c91IMzfX43X9yAWQLYKmLbbSRyqHndc8W4BnNIAMXY8BVzJVazAjCyAU5ZOr9mnPocAsgSztQBO2blcCYnqPocALTAPYgFcfOE8cDqJRa3jbwyIFwvgpIXLJzdPgL+vgKgG5ssCOOnL4X1gF1lWom8Dph9ZACetwWzlJ96RJZ6JuhKYgVgAp6XO9vc6ZWTqt0TZN6iCBXDGg7N3eT3jhGpHdPV4eIkFcMbQ1ew+meCUUuJhFQRNsQB+8rkt5bqf4A6R6EmqoL4tgHNeQZTzDYG4YaSZMVUXC+CcrqMd3hHgr4BuCmpqAZwVpU6eBkRVnHdIREXyACrtWADn3YF4zPtLwvUqoqEJrikWwHkDEPe57ya5u98642yuawH8dC2wkf8KgJsUxbVZDO4gFsCPR2it/FcAXPombhXLADe2AP5FG8wo74HgbMO2OFTsA9xOLIB/Us89C6zUcIl6UZyZlQEunlsABDHIvcc5xWXiz4q48SdGlk+xAAjiI+8T4X0Zl6ptxIHo+Le9e1tSVIfCALxQIQMIKqOgeG7PZ5l2bP/3f7G9q+ZiT9UOkBC6qzrwXXvHLyHJygpSdcM6AIKaqoe5eiggmpGqwEK6KdUBUFoLvIkHiKEINg5IhfHLRrofVAdAbSu9o1iNDeblR2BIhTX3yBAf6wColtOuFaeA43sHeViyokKCCTJNqQ6AuJVKIec9BhcL6NRBPu9wIVnrMUOmMdUBkOC2FZq7J+C7EdGxAwEsmbokzmj9YMjWd+sASBkVP9A1BV/7RP+6exBiJ7sTCWm+LZCne6Q6AFLmhdv7n2Ig60BOuIco77HJCUG4ufnIx35THYAyVgIihbNA3Z/0hxtBgp/MN0OH9+yf254HMS+qAyDJ6BYcA+YAcrrCGT1IYr41ecx/fUw3m83r4zC4JY0Y4g5UB0DaGDyHwjvxnkH/OTB8oQHVAZC3KdTYI+gCIudxVjG+zKDEq/P34FiTjly7QIf3nx4ES3GOe3yRpdoGxi6/zO1IWrpC+hphZ4QU9vF/v33gK7APxcYIy/xCiTtpaQoedqJURgI+foOR1QKfzl6pNhTq5Z+bdUlLbluyqMK4Io3nEEc4wSfz1sqRt+gvF3DYpKlJ2noen5MgDTOJ7+zjM11d9YuzbSNvi8QnTa2kdlVCC6neKY37zvBZ7C3JOYHHzCt0G5GmDB9cJnHMOkjluZRuneBzWAHJivNmkSNw9EhXA/EBfdtGKtakTKs9ymf/Msovg7kzcBxIV3cGCEV+PVKbiJ8bKNnkXt79tuecf8SKtDUReqSXB0OGiAScLZTIMsvsKtY36I9LDJ6QtGUKTOtntzay+BcS8kwYytE4U0EXcA0yl8b6pLERUkRD+pdjzvvIxkwSdRosoM5qld5aGNuMAQLvpLHfSLXvJQ2GXFuSYJyvDCra4yapmINvMnPNCHwr0pkFNQ+SFO4ihoL6hwupGUJabJDOTMhSbwN2+bjakOYNZqRuD1k90tsVCvYuFeM856M2hLWjw5BKsYUsk/QWtFFYPyQFznN57SBXnCx/O1QWN4acPulujqI6d1L287l7S/o2eBbWeNk6UbneIOdFunM8FOOdqDTh+rnZLgfvj9vt9ngbHHabZ+DSZwhtyOgYpD2ToYj+pQpvvClVwBIFWCF9T04H4iyqhAjSJo5eZRB87SFVQuhB0oC+sRtELakigi5kxC36zpwGxERUGU0b4kZH+t6OXYjwQqoOM4ag9sGg725mI98ioCqZ+RASrSuS98WaquVuIV/nTHpoLpCtE1DVGAOGbP7WIF2c9sjyIyTNqLdha7wM0ojxxjK+c6iiph744p5JuplZ4EsCqq4Wp3bTv7Uc0hC/Vjl6UrWF057HgD9i6/YRkL5m7z7+1nlbU43IGbZeu1drFpL+hrtb1PcXfiN5f+n/7v8Hm3ThXQMGTKIAAAAASUVORK5CYII=;shadow=1;" parent="1" vertex="1">
          <mxGeometry x="69" y="313" width="20" height="20" as="geometry" />
        </mxCell>
        <mxCell id="3u2YojZL_NNNf5w3evhY-18" value="" style="shape=image;verticalLabelPosition=bottom;labelBackgroundColor=default;verticalAlign=top;aspect=fixed;imageAspect=0;image=data:image/png,iVBORw0KGgoAAAANSUhEUgAAAgAAAAIACAMAAADDpiTIAAAAtFBMVEUAAAAAAAAAAAAAAAAAAAAAAAAAAAAAAAAAAAAAAAAAAAAAAAAAAAAAAAAAAAAAAAAAAAAAAAAAAAAAAAAAAAAAAAAAAAAAAAAAAAAAAAAAAAAAAAAAAAAAAAAAAAAAAAAAAAAAAAAAAAAAAAAAAAAAAAAAAAAAAAAAAAAAAAAAAAAAAAAAAAAAAAAAAAAAAAAAAAAAAAAAAAAAAAAAAAAAAAAAAAAAAAAAAAAAAAAAAAAAAABSe1G2AAAAO3RSTlMA++4DCvQG6RK41cfPmxa9IvhGpTjgwq/kPRpLyyYOeVSqLtpYM3CSgU9BjZaJs4Z9oGRgbXRoXSrdHsEHp+UAADn9SURBVHja7N3XduLKEgbgUiKKIJNztAGDMQZjY//v/17nYqcZOqikQUhzpr/LvVkza41Ed3WFhv5P9afrWbllW5bXHc7Wmyr9gvHj5uPwsn05vG9GDhnZ19sucMVfzykGpzfpdPEDr71ukpFl1UMLUuVTjiJxBg0bEq3XbzIy6nsXQKl1dIitMOlCxWqMyMgg9zWAlt8kHndiQ8daFcjImocWwlhrhxievxAmvyEjU9wdOGpVCuO8gGOXIyM7Rj54FnXSG9fA066SkRUPNri6ddIp+OBamONAVnxa4Gv1SW08BF/LvAHZcLIQxdAlFaeIKL7MLpAFUwvRVEjlBdGUXTLS9ughqg3JPVuI6I2MlBVaiCw/Jhn3C5EdyUjXDDFsSWaN6DyTFk7XAHEEfRL1PcTQNjXiNDklxLIi0QoAzCbwe/lEPF6BrhU8CJgBhZEaHwqL1WdzVG8uV11IfdC1M1S6+93LdtaCwisZaXlUVeyb9A9nuoBEma4tIGW/Xugv80oAGc+kg1LzApnhI/3IfYNEn37WhNRqTP8Zlc0SkC0lSFRydGXHiN22kPA29JNcBRK2yQempMpM9DptCBr0sy+IrAfivEt4JyMVA4jKORLNLVz7op+MIPHOLBeVyEjFEwTWnGQ6EIzpRx8Q1Uii0IXINIunYwvBnqQ2YQ9tBoF14f5R2JGRhhkES5IaWyGf/IJgRnJ7CPImH5yKIgQFdsZoQj8oQPRIcnOInslIQRvXuqQw05fyH6JEdh0IVmSkoI1rZX7KaEg/mEAwIZUeBAsyUlDDtSIpnHDNox9UIHiMlH+qk3F/Hf4L0ITgW7uW5EntDMGJjPt7Yxzd1VHeA/2nqzkDiOqmOTAbXnHNJ4HyET/Rv1xtCCDyTRCQCe8RFu6armgwUq8P3O5BMy+cggEEY1JY6U4MzxD0SaD9/AMZd1dnZOXVyX6b/rXUnhFEboBrZzLuzgn40fgzBFVNVcknrbaJAjPBx7VthN6Bniaa3JPWSpJXMu5vxj8Hkq1pCtpJIkSto2TPMO7vgGt2hFV7q3mR1pG7UU1raAoGEIxIoaJZ5ouSJIGWa5pCMqEKwZIUnjRdYWVc+yS9vOQvNu6vi2tb/mph5dTVnQHplSVrhnF/HVxrR0gaXOhvLckJQa+Bay9kCFKIAj2HnzTYqE8Il8gjKQ0y7m8A/qMrqQs+gbJWzK8IF8kQZCoK7Cizd070Q93JZIKyocWf1HtRxgsuBC7pDWIVhJ3+48Py4zw5HCbn989Br26Gym4fBe752bu8eh1xSK+p7UcVuc2PVfHLwjXb72yPTXPFQGwH/jexpyzif0dP7F4i5CCry51vQWvReGqay4fj2OCa5fLjhaaqH8SOXom2SOpxPbTA4tUmTTNgElUdgjm/HPSpGvXoxog+cyS4vLQQiT07mZpCJI6Ha1NSGOLaQdjQuRHdODxudE9lxGC1z6bHPAIf1w787F1DNRfkUwg3rBut+mojtvLZ3EMt4D9VfsBYVgUS5RgvQIHx60VsVu3THBFZDvxv71IV633K+kr0croXoLoN8Ovs3ZyMUFN+NeBR9dA+ZMkEvZx6C8idbdxIe2nOhmEu/Dm9guocOIlW2dEnD58XuKHu2SSJ9HIWv0XfVhQOtrKWQL2C4gUovOHG7G2fDI0FvzWjrDgxvEUo7uuzx4Mubs9bmVdAY8//+jYU9cB9lMlAVfY4IMqtkIxgZdJDFKHIxx/paytWhmOcWkB9iMR4axMLsCvzef5Hu4obojYUvRo4sJGk/IcpFLCLfPyPuvLgsEchnnHNspAw31xFJVPg3+7Sh+AiP9OPGFXIFMxMNCiR5zf1e9K1vh9j2v+EeIJWed+oVCpvjX27ZCMq+93sA4zD3ZpfOXqSVoMth0KcEZXlV96fvx36kTvfTN58CxEMTX44/KagBr+BbCXdz/O822n4FtvBWNMu9tTJgys4mPTwzyb8Bt0XadJ/GuP67wr4vtYXCjU/FwPw+BcytOUgm39NSEn6X9sUpgMmq/NATO70zQaHZ36gIKQcVGU3c3vSinKHEXiwWJURRZEb8N6BoskM/se12Mf4kfRdWUWvBVELHI06ReYuixZCdXtkqB/GKdJYfyP6z0A5FsINmxTP9zqPMNaEjL/V+MW8rqwgXIx+5VcVobwnh2LLLcsI0zHVgb/t+Ht4WVb3G0a/+fcRYdp1+jW9jgW9kvnhatXdHyV+Qbgi20IGv5oJttYO/bL5zIKWbW6nVMX2/PxNUZYgbjLeOR17QDdxmUHLMudBRWzfZw+ILmLVglbQWYzoVpo1aK1MbUDaFthjV3GDWLWgDjTKBbqhwQI6HTM+IGvoOPFHCatxakE+1Iou3VTuyYZG29xTLjkHrvmLRTNOLchL8PmL+jNolEyTwA7XGvyk0TJGLagPpWKOEjBoQW3xxw8SnvmzfW1cOx+j14KeodJ2KRHjHdRaf/o48Ya/iDdwbTWJXgv6gEKpQEl56EKp+4enhOYQjNmJgM42+t3/W8jl65Scwsy8AfwazyP7u+vHmAvaQyroUaKOHlS6f/YukMe1KTtraHeizwWVIPVBCZsvoNL6oyNBSY2Hv1v40eeCupBpUOLGM6gs/uQekQa7pWMMgYVr01grwGJMdzCxoOD/weXhNf+KDxvhnknPzUNkNeku1BNo7T83K/yJa1/8JK5oHmco4EB3Mm/hL+bC8n/1+On8PcL1YywAfo7upTrEX8xvFmhSs9/stLHIjd4MYD3S/YyLUPig30e1OX1f7xr7WrtcrhU7b9vD6WGUo1icgF0QniCUR1q5FkRbuqdcA3LWbzFAXJ+uZ6UAMtZXZ73pU2QL9oDoJ0K1SGsJUX5Md+VUIGdnPCXoPh+KNsJ8vX1WKZIiOybrIZRPWkOITnRvW8iVsnsYdJqHtgUmazgZER//pz/rCFUjnSZEvkN39wK5PWVSYdmwEZH/VCWmCfspugg1I503iAaUgi3kJpQ51Y+ahTisWY9YlvxEQB5hKqRRCCBoUypWkLIeKFPGp5qF+PypQ+Ga/ESAjzAvpPEO0QOlowKpfJ+y4/nNwy9afDoUpspPBOwR5hwxBPQpJc4MUm2HsqFwXuAWSpsYXZq92Fc7HKPNomNJacnVILWmLHh883ArxQvpldiJgAPCTCOVndByKDVjP7P5oEENt2S9uDdKBBwRpkdqi4xF3f0uZFoFSpWz9HFri2fSqLBj+QeEmUfqPgyqlKa5l73CoPNZQgKsrRslEVBkPkPRd6QdYEbp2liKfSw10xISUrqQyid7uqPwK8VAP+UkED+osfuUjuchkuMt+R0BNil40AtI6RuCvENpm0GmQ2mod5CsrcNO8RdYcZwoH2kgZEWpG5eAbJxOxy8BklYcc6c+5yTXhl4p0lR4j9J38SCRr9KdTbu4A79PMl325jyDXplUHFu6A6RvmoWTQL2IiLrtxvbwflpupsvj03rXKQXgaI1Iosxuj1pBbx+lEryjTNgBKdconHcPfHbxdTl36ZpTn762A4TJz1nf69eYTWFvUbqBB5QJrnxSwaV7GbXB1X07jkjDfVi1oGc/koA/4nmC3ipCCBC4lA0XL9WawIcHFqv2NCeG5s6Gjj1ntOrWYqYCD8QfKilSVrxDIqjTPVT34PBmywJxuR8laORH4XHQV8xU4FOE28jOlBm11JIBz3mEszrLMUXiTH2otfqhAVoQ85rXT362EU3KjL6dThzorC1Wd1+smkIX4I5C9vmXxlvQGvBbsLwcZccJEiWHklWtIUzQaFJM7msAlVqOfuTwM0GtmNXgtjbMSF8xhVmhxxZC2Osq/YL5kBut82/8HULrQgp2Rjtv/vHt3X1k5dODXuvdTW6LOYZkgo6c05yoz68EbShTniDxSolxttD7OuaSDDKDR30m6EBylXjV4AHjXUmXM4TI61NC3A60ukeHbqJfhtxXQZsJqpDcGjoB//tlU8Y0LdwvW90fQseeuHQrbgMIrXmf2Un993jV4F3GY0BVTcCqUxJGLWhYlepdxqCOuuEgn1E7Ey34mZYVZU3BvldVsJmHRntONzaBlFfX9ATlYw0Il/l3kr9T5rxDZF3o5h48qNlHur0zpMqOJlGbI6kLdIr8SygeKHMc/y5LwCCAWqNKSZiEZO5ddntvAToN/jU0dcqeB4isEd3W1IJSd0MJ2YZsAjY7U29BY8f+oTArRxlUTH4JWFpQ6hQoMTP9kl1i98Z3ofHKTgN0KYvmlvIgkPz33ztSgtwyZDbKKP09zoT4hF1rGVImvUG0u8/z90eUqGoXEi1XdV/sK2OVZFdPJr/LZSz1AAKvSrcysKBScSlhzUDTwvPCbgprQGPJvpOnQtm0S7Ii0POgEBwpeU+Q8KqK/1dkhJPss13lt7mXsx9AYLt0E3MbCt0m3cNeXRhesjfpCTSaJDf7HW5j+ssqsb6Aeh4Kwz7dRTUPUfAtT/B14/QFj0hu//vcyypbAkp0A4VS+r9fuVGe3Ufsi6IG0KiySwEnyqpdMlfZ5dpZ+AXbhmoJGLMfZhMaLrshbElZVbcgKCbwT5/KZljNq6IAj9sVOIrTDjDMej/QjxpJJIMmkLNOdFdHiLwCEX1xI/pCnHaAYVbHwrizDy//4+5ct1PXdSisXAnhDgXCtS0tbYECbSmXVu//XufP2meMPezYUrCzzP4eYLEgqSxLU1N2rEjQe4ByCaY5QahGlfgHHuby9J94AWS1rkpsw4wIOxOwB/0Iz2KZ2PPIt4udQg71m3oBuqYdI5If8vO3z1BuivROXuOQFrAKr91SDgCQolkF29Ch5w8XT/rt3sht0EEBq/CB5J1zmC9ZGmg8AfRWQMR+w2sGJ/I7PyxgFd6SZBgOE/omp8XXHsrwzvB3mHkosJeIPev8yYAN5LC7BUmguuHxY6AN68gvMJRZ9tJrwfsC7gC92+kF5BaD7qAYO+c8qe9QpDsjV3WOBdwB3m+mG/iHqjFdyIvWS6d8aijQSFAgYXeDDiCQLzdwmmdTpYBFRzueXT5nFPDjDrW1NyngFX+8FUXQP8S+Gb+IuO7AejLS+tZuRj30RgUWR59L3xTy+/B96iZQmFczUXvr5oLCDQq816m1mgvmsqTX1nywyaT2Z2/WAgqylEXJAgOnbm6mWqJAVqVaBIyVehDySxOCNcJH/Afv3mA1sGvGgRBfwD78b5dSb2ohVw8ilxssSloGtDVXvmsAk72iXmoZ/rfzyGWdqMCyAL/EWvAr44OsutsvPWf3086QQI87G9ThLIu4L6vZkYXGLsuj61vvGF3ABeqop8ptB1Y4k2m90jZCno1VcLYGSkBf4ARvqKfObQf+cE7DFOwQVAyduWPvuv/zOJKHVTe4Qz19bjuwzqk9eWFZ3yw1VzBtXzuO25+DGwQV1BKp+8msPdALw+tCOLGmYs5W4/s6WRF6I3CFHuqJ1WUkTnk39sryin5SKBV5zK6Rh8cpIrrcAvtCPWPm/tgeK+vclSXp3ZmrlkTxVRlgGoMzzFDPhekU987aTuoHYIG9wcLbFgXW1ziOeXfgEBXUMlImdCJbXsRZgnmCTFGg5jIqHsNfHT8AhCRVyorZD77nheYPMM/E5GRn4BdtYs468i1ELnFELV/MfvA378eslSN325rMlL2E/N9w3RhvjVqOzLUxB95v4o1L0fItja6RWAGBO5dLQJIGHfNMbxOODJGXMnSxWyx4CSR3vl+LriDym+AYfdTRYI6Hrpn3s0EZbr97s23zOjG43oAOfoc6hiAl0BjE0JuI7RKWwc8MdJaZSUBNvn/INbaoY8AUBFxARcP6PWDum44yqyJmIRN5dHSOL9RRZwoCxtzfJQustzgPcA2JV+BSUZMGU/cYoY4+UxAwBxVhZHlvUDMy7/A2VVxeeY7T7jFGHb7yFRcJ2P2ngVkliMjWuH66E+sDwA1sxxCsPqQELLfYiBeh+QN3fAWe9wvX8YACd/zA6ifgIj+oI2G1kjNQEldQZGfQ/MaGALfJvs9VpUOzTlJDHW3WgPiT/my02BF6sfOvPzEregv5/kknGaKOJUsRMi3ik9ECM8wiO/Hlk2kU0HNzEETKO+pYsxQhLUqOZsktKqihnQzjpDoYRX49FMhCcJM96lixGok7fcCx1iTdo6XL94JX09neUAAgNIQPrBJSr1jK8WZEBmBr41sQccSMoX9DAUCIbuR39xmlNIpdOjoLuJaZb8+EY8C5WpxuKQDAGXW8sSRBG1ASYQ71GK5jnqK9xc8bzm0nRQHf2QAgFDnIBax1kVgesj6GPw1sXnbOH2kZSX8VZ1mhAC2ILlkCIlFGYnZSOOihTQn2hXG5eJSu5HGWCeoYsiTlp8LDaNHCQAvA0gxOEJHnO5sdmVTeXSaoo8VqI52Lx5v+GAoSvPNmFPjUyEfW8UbagPQXoMaSE66uuHOkzeLx3/IQZoNc8UrxtszQHlBHyuojrulyLZF6AgWYVxFtD2GeqNOmd+5LwYXrvIaMdaNbXlV4TsfAZlxHOVu7wpmEmoyk4DIH1OGzxsou100i9RfAZFRBObUYzJEQZ+ZC/5aKQEIDVYrHKur9sipqIv4KOAQfHsqp/IJJMvEaQDxRIzeFIMKpnM+c4zCUMBvrIpsYyMwGKGDHh7FFO2GGeGuGyK+oZczp68SgwkcC6RJoxPeRooNhlldSbp90ZEeF0/RQy4w++oQdUBEjCe81AQKTJ9U8k2G+Sd2Ag0wi5TYt1LJkDBX5Gt9FIv4xBA3rAeZTjcEwXdJa3arJbkS42gx3ja8mWCVFLWuOAZbGnphM5UP1xeOHGiqohWCaX4pYMvHMTT8HL5U/QfV1DhaJUMuKUX5PNWVHBp3HSQxSFtsMVaQJGCeICH8YB3Nyx3kL/8/PBayRoJ4zI32caooOPPzHQxv+TTLZPKGatFlOqPyi3AEOJtaMV37/qlfkiTFX2mJqgj3Uke32X93lrD1bdg8fvdRDLOX5Ex7uljD31pkbmXAcWBQE6XlhVBB2TGHN+yMaZpqUtV/jkVAFGhqacJzYEwXr+WDISXvMO+d98IhGac3BDt/6NumnsW3Dx9IaijvUs2e0dhvMO+cXxD00yGdcXt880zvvRqGhhXWdsDSLmIgqfTjzlX2pbCIk2KIpvA+wxkL8tFibTw2NTWyuwApNFBhQ/6ofdNFCpCJX1n17aAR/AqX6abW1g88HYwaejdL0QJJkh3GpvyfMoou/4cRHA9TbYBNfV+WvsbyEmKGyEpeUA0YHambfZfdgmrkLhtpTvJpNDFapazK8xDM39PpZlqxIjPeDB+rXGLF3oSzyWwfxxsOr6HfBMlVNmf/ZYB/gXFJXOeyIWdyEqgpdskXBXVWrbP2DxfFeQ7BNQ4w5utL4zKAvVTQvJwV4HlHr+xe2KPistAcKtx4WZLoE+7xpih59pokAVzr1VY4a5HdJ/R5tthfyUXNNmlWxCP1zACVwUp+NbaPTbkcUmJZiENSHC1UAPWa7MWy1kxvrGnKpvIRQCit1aPzi2l6wlROjMjarfEreZJ/RSFzwcts3MU9oIYe+8PhL7Jv5Glf5ORRnYGfbLKFy0aTKvEJEpvFvldRoXE6RSus5gNJoqwWQmVn/w+8yJsyeZALQOdUpMGAbxdZJE8FxhiT6+wuUSajck9027AuXdOzfBO+kxsAxeR10h6sKz0jH2gkJpNsRlE2kmoI5mz6zH+2HgIa8lO9Rn6rPVYV7lIty0Ec1Xto4j+Ev0Fc94oZ6uxyfrvV9I/NILgCOqHG9ggIeU342p/WYPD/qRH6Wtj7352UI9uGfYKlp88PgCQW8peWhsL7wXFWZXZ+pCr+Q0suasy6rEjWDqnT3YUCBYnPFVvCDAhv5c72Qc8iMt0SlTysw90NwAfFUPqoC9trC5gs8250LX8qf65I8UvDD+8QpbYD8GZzgXaF++LCwGH2LIpUEDBGkeaL+OjWdnaJAnRfTdqTx6noATrBV1HqrFqJ1M0KRT5sB4JjzXLvk6dAaT3zQIOnMJuAG92JWrkiIN5YGd1dghPgHBTrNnCLkilytbPGunXuKSHUKjnDK72X9Wjm3xhGKVJrWLIJ7ecnuA3krwo6nQH4R61/OZgCy6NRS3F3btna6tQKw9G6N8p7TmSwpf+RZrT0TToB+AI6wEk+8/NOtYmgHpqVL8VAx1jekSRH4bhh9/U2p52oNQH7VS/OD4c6el7u3smMN9pz7EE5kb4l3Zi1dv13cG4Mr3OXXMTJL7sDxE8FTlc/YR5GfQOjaa6S+nzyv8Lm+dXTntMniIjfON1FgYtPHM/uFawgGKOGQn6wfGc2kfNp6j42j0dKXfUFAlF8HHFvd6ZQmxnPLpyD/9nlPdn28Z3ktZvq0spOAM4xze19HVg7Ij9Yi9cS0NeSzYg76jbw37IWVRNf1/cUWuEOCAnHeYVi1vdKl3oSCdDsoYaoq2O3JkeTE+iZVvcz0CO4Q5razp/RkiE9L5arLZxShjJFKKbghewucWZaUn/qMZwnuEOdmsZHsh7B8CGC2gAKMfJTRU5a8X8ma0gdWM22rVShEATgECjTz9ICLEgzdoxWw6UYow28qU/F3skfMhNdO174iA3AJLyfXn8h7wfbdXN8C4HHyEBUjneGse9gPM2p9754nghho42TV8Y3rnZyC/4tle9D4f+3d53IjOdIu4CxP7703orciKdHk/d/XiZmd7Q0doIBMklWEvuHzd3o6WmSqCibxooMhajdg8NcYIpNOdzJVD0OUyeuUFVYTeknbYXICk3ghTa1rXjII3y3AEPYByLodvNMQpKa8V5+t/dOBsa0AYT9BN2ScvoPnahYxTP5CTdYu4r2G5K7FLmsS1d/PsuXy53o3/agkAMAyehIQXgANbjQM31F1ND4HeqUU3q9OXqK43R8UHSQ3sr/PJGIBXEJKuxJhO5LI2+RArZnHR2zJ10fnlEHRfAlgi78ALrH8u2eoUMxOIJT/kcbHJMmPpR6Eav+fLYAFMzT/Ps4nKmX6BZBwmjMbH5UkB9k4EOoQYwE4y/163a/ENAaYRtARTLgdUZSaDVo//o/L99DGJ8hT20os9UuMr3Bf0n4D/3Y9xzINnMnmzfE8A0R2rbzpn06n/WrY8fBJatQlSk/9DuOrAN8og38M3WgLoCDfst9BJJwZvkaaur8bqIOi+c7A5c+tH28vJ/qVwExUeU6iPb5Emjqsq6p3Nfl2wFQaR9hTasmnqbZkRTwq5yK+QIdaAGN1+ilfDVhuwyiv7vdRkFOECEejGWD8MiBVYh0NDJCHn7PUm3so6kfZEJKQLwP4EJ1WGmOXoj4BOpqgaL4jULlfNsrUomwJc6W/BwFEyV+h4DUFMOAUQOve4QeN+11FuQCepSVf9zjGfpqxFOCjyp0nFMCZ8woYIRl/PNXrBxjGi7At3JIvcNQhYokyPqTRBiickh4SjUHqwCmAEt4n44NOa2djuAZw8CJubHk3wBoi167i/T4T8Dd/8r3OVy38HyvI1FcragGcONdGnvFOG1BbDi1USUZ4NCyQrwP1IXruroj3SS3hByfXrSxL7VJzUshNDqt6+kotgC9OAXwhDS8lu7Afo8YJnmUpT8RJS0aucSiU8Q7ByQe53KFuo9wVpPqcdYANanFbH1vTNGrZvQjD9VPyxO0SxGM0tJDHnvdAyj3nLRRoCmDOKYBPFBRT+WF2nc3W0w1U6oifqLucd3jPj8d9yOco3gv7mC7ZItI1+j2QKmxsFOgLYMMpgKTyGJk7Oq47FoZK9Svu//7sx6pWRJosMLGPNrkoaEF8cv0rCnh36o/KFqpVqft714eConuleb6IYaxxvj7c5jMB0lk7B3j4913cUOBDnJxl1kYJ4qr4pY5aVerx8CszKFrUC/B5xs2I0/U/pa1uNsTNX65S902oCp8W6lWpr/Ur88pARlY4n7Vxo+7KmyluwopbbrCp2ajkJeCn3qqIFFXqWa8qNyha5GTwOdIT4GNefT0PGRq+TK557m+yw/q2Xm6g7qy1cwiQpgFSdUYBXMhLtBULnyA4OnAf7jj229BUmwFqEtcqHaRqUD+QKj8oWrTDh1mrHjybfMVHnh9qhJoyZjSRtfDRAsgzCoDxoPRr+KBhF6Iwln6eG1NPtE5UJzzOATI0qCVWZQZFy7Wq+IhkJcbbo+UZ4mYYYljoXjePLFVqWniDGxQtd7HxbrUmRMSXH4UcGhtrc7FQ8HXXMdEqdW2nwQ6KlqvYeJ9kM86QMExIk80OYIi6tL1zkkF8TgGMGQWw5e3SjQLkK36OIEIjec5hzdx06wqKRisL2a7U7N8GKyhaZYxcwbwF0Qnv/esYHGqQRkER73Cl9vk2WEHRCk1kyn/4ELGjvAFqLPnJTHHE5xhTR8UNVlC0widyVHddiF5f3mzUMDjVwrWRycpPmwNqAXjiN8EOipZzPSRrzJoQi5m4F6Q4M26G7D2v0Qm1ACx6AXTFUnvGo8vqzCsgiG1avVGcGDVDCRmqBz9kBSlFvTy6ygmKVkgiQWr9kYMYpeUtLShogTF8+45mwQqxAFxGAQxYp8hyFirZ6ezXsgcxa0hbWnyzY02GSOPNXQBmASRQUGV0U/ECsjOF5uB4+P4+D5ZdFyLE6WioyEc3LpjjiCTDm/C41hdADgVVTjNNovm9K9fGgYdY9Bqd7fpUaoW+AabwajcU3OS/Bg6Yo0A9KaAsgAx1afRKD4oOApRo1PdLt1c08d6IpnwhsIUCMEmAOl7f123dd0CmwCiAOtJZYxTU4eXO8ufdTSxWMMkWNZIF+MFpU6/B7aJgTGtO4BvAy83Fj0VxkZAxNqgUfMAP/mFMPmI/YhTAGB/iufByZXnnT1fSFGySA6pkE/DD4MrIWJigIEXqpeAbAkHsywDz31AASww3XsIPty0rJ7BJLwAXOcy8PjgQI8x+QwGMFKdmXPjh2+OdsF7SC6CAD7F68HJuyD1LF8MLoIUhOiP4oVfmHrEvIXl5rxJBUGXMRiho/YYCSKCUfXLgh+6YnRbephdAGx/Sh9dbSEb7v7cAhi3xMjGFOvEjwc4zgqLNvDuuL3nfxTMG6M7z12ttM4G75FA0Lgl7NcU7BuEf9ALoI4OZd8eJb8h6SAF4EeVBJQvPCTaypr7wVVr3zMLO9FC3GT4iCQbohJy1LUS7Etit4h/e1AG2JSE372ihWhlkDvQCGOIj5vB6jjhFOiqy454lV/35+V6A61s/VRtYqPFJ3bStPSMo2sgu24I0yj7yzaChcOS9Bzxr7apOqYg6a+qlYfknBEWb2WHTRkEvbJDlR3m8r3EGlpTu26x4qDUDmSm9AGykM3Na9RXW09aTVcazzPSRWfwuhpP2Tkri7eF98nDN//XLQJI+9aQiQvxZMiiVnwDVHtUhdr0UEuyof/eWtxwZ1LL9w6DZbC4Hh3k5U0SpLBggE/ZYdKJ8ZdkYol4BEr+qXld3tg8Mw+co2FJfZVaqvm+34Cd/8l2umrkO6FuhR0CLEbaFexgqXwKCb81q7fyRpdgdbcmQmaPUeU3wKn801tReify4Kypkjj5o5Gz1+7xtIckXyKzI+/Znxnv9auRRu0P4UK8R4b2xZVQKNl1Q8fPq/P2CjTRTkJk9cM/8kPHayxxdeLW1vP0x6sOhC9RJfycgjD9EUeDAf/lpJPoGmTW5ADb0RP1vlLDXE4hKojTNDj/7I247UD18eLiAZ3FSqGUlDzmQKdQ0azorlPLGxMiLLAo+qXOovfr7F6X2F3gyp/ux2zbwH+kKbyF4H97vega+hzLzrM6u1IOfbisPZUa6PXp7siX+RJ/kGVuS+EyBEypcZ233WV/9oi/MOq0vzpYatsN/uBM8z4eFNFbqs7+Y5AAA3EK7X7N0iyq5IOT7hzyxJa+sXTPWPCX5P22xNi8lHkvSPO6GGU891hUdFJP9YbTz1mUDWYq2RdtX2aKMVwGoEb+uoX7NmDdQLhVppV6elgoOsPRG7dNm2LFRxarQj9k3iPFXj+tl8XnSmpet1ZbOxEvU0z6rR4KiRx7SeZny7nsxyTkQzm1dlh/TTTmfspEkT99RqSuGUmt4ruUVHyROULpe+HA/Q5zXbFGwoXYl9eRb33yWPU5vy9nZZt7/y36/362y5eG2lmoUka0LUglLMYrdR3+KwZ0XkYjY2ePUFLt+Y+LKRhIFu/uDov0avt6JnLNRUgxc8/B0hTo+gd36sZMrqPkhgV4japfHnnzblmCFBphRjwVaCUVrZAciUErhwwbqF0DQCjsC06UWQP/uoOgFmuCTOo1NqS/Rj4JzaOBjZuoXgLUMXYy9gUyNOpGa6jeNbjaaYEVdBsqqDr14EA33K8AHJH31DKAPofubOWoM5fTeoOgkGuFMPdd0VHYLuhARtx/gvTqu+rct74SHf/WIG7f4fWdQ9AGNYOWol552lRGIBYiMO63iXToJ9RKQfVOcgvSp/UqH+4Kibx4a4ROkturW+mK8J5n8cwb5Ur0fQzLRh+IwmUVu9T0SHxUDYUnJBHYLZBxbPYapxt7H3hxayGS78I9EoDn6caMOasbyMuIHRZdQxt5fMVbFJflo81Rd3weIWqs/Rp6zMoa52oM/yKcdr9Qon6I6Tdcfh3wdziJpYWwaTXpj7Uj9hthDDJpZGxnyyt+2krL9rUFNgMf2PUHRJ0XF3uZXjEWw69EDrmxHPcZdQyz8NqMGrBv8xR1rG68r1A7OhrSQRF318Uk3UN9yWllVMVJeev1dcSBMz9IsY8xfGGrnL3cZVsjCHCUaPfUbOUOOIFzeERS9D52U/jGZdzAK1rU+HxQcdl/eSdPFlIE45QartIcC6T+qW0SJtuYUXJpcAE2QGCgXy3t2yKr0T63zZ+O5X/3uPHHvjNzvaiokgLj5o495uXYt4n94VUv+r84TZr8f1ANfNgom/KDoL5RYgEzhYyaUOlujlv0ajFwgq+rW+icGxUW7uULh1nIBktKdujNKBAldvnSdfGxlRA2K/sNtqEpS5IzOm2TVQragM9ycFiP3CeFQn9p2hy682gAFGUgElAy+E7XZ2yP+4GtV38iRUJIid7SYrobpqodqdrWzzc5Pg2bBhTv19Z9YUTsYjp8foOCWJSWAfVF7fYvERfC6ah2lg6IjkPmt0XJw/P7a71br7F/Ws9Vu3j8dPtqVbs6JJCDUSmhXxL4hTuRTGyjh3fRP7BlIWSho0T7CszJAMA0GaVn6f19e8oh7uebdp75W1C5XFCVoS8Yl5fVwTTDIN6HtKWtitrHTQIqOQ3h27EHGQZFLGyuMVPfabcEkSRRM9MOEDLzeDAmsCeW8x5Qc++HQQnZzqp3JChgkUSQ0fA2MTLVZIsGKNGb7pqYnW7R8LcuBf2wNDQVUTVLWlPCABLycY6NWo0d66J2pl4F6IFEJXyjrFVFQApMkKf/AnpmPsSFqDWiD9gU1hdimraWnFG+AFBhAdSLE9ilromd4vQPqbImdXktqATRo/4684njpFExyoEUgpAkTp/gVUMO7Efs8KtQDX1faUlo5/C1VTIBJ8igYEIOkDdC4L4U/IN6G3SI+v2ehQ88JmvnB/XGzaNdXzSUtFAYYolLKpy7x36gF0AGB6vz8l5mXAyn3AYa0nRfLh9ebolITqOs7CWoIaZr2GD2GTgKLPTBJijhuvqDgAq+35PfAc+7CLRDP16dCG1BswxcBKtQLDH2LUCjx66GCnQMR6yrUAnFaYYetpXZRcAIT8GPQxCLfgwGqGO5Az0MKQKpLe0H6GDamOJv54ATVRkWbejXyEAyQxFBph/7cu1IrBcu0saIflh4YgEmO0pRF4vHXKxhghmGsEQi4TcEXWkrcJHS9cGv4JDBNDpCADyN3A+ALw6w4zWQ1crPcjBUUXTXzxan4+XBC/7NLeL0PxSYQ48GXJP/QG9LfVwsdOrfBIGvGRoVfNHJNu33Pbfwn6nhmgoI9Jyi6i4IbmKPncTYqMtppdvyWQwvlkrw7RrLkAvgihcrPwt4NHhhkqsiPEH0ytzVzX/mGXU1uzhcHIlFQHB8uFkBhQ+1wrNCm8eWw58RBMto0hzNGQZ1TLpYLoZy9h/9V7HxOSy14qu5XGhX2zJNQe3IBHDhB0X2juwEXyOpVaXJ6W13xM7Fr69OyBU/Qa8/GqDT2mVtIJ3IBfNCCohURq8aooeDqQKiexYiermMIrzOcnysJuNdtsOpYqDPkrh4dyUW/IO0uV8Jem3MwxoR7iX2K/jkfUcNLbWdfH5WWD2S55fcqGSDNnrn8sSAXQIkTFF03eSdgiIJijne7TwPknCtSBank5+bruFiOWi5IJAqV0rm/rndsZDnySnn5yGsvhwJX8agxRNdCQRlUTuRJbRPvYnlBNZVJ12q1fD5fS6fGDdvCOxUrrD6iCXm3ecIJiq4Z3A2SVawC8kZEoj6+XqPFuauwQC6ACykoWvGuMUTBYp9Y9IvUjYMsGqDmQAgHBTlyhvqNExRdM7cAsij6YG8ddQwuAJwDvSHIJxdAjhMUXTOki0Z0K6Kg6oDaSn5Jr2iOJrCa5GZyD8gF4HKCovPGjgGyKJqCxoC6cNRGI1xd6gS4Qd9qAoFitr81IFaBPAWwe6CRo96f4tpohBn19zpFLgCPFRRdlqydGWGImu+SmpybNnca8JcmtR+EXAABKyg6a0CuBnUR0MuBVpY6CPA7aISUTzsNtyUXQJXUmNoMHR2UwQQ1FK1A70xuIW2NMU5etplCmSnt+fRJ3i9LkZKkuorbtgywQFGxBXo3egthoo6xSU0TAK0q+WjAjvxTDCjvvAQKEqH/fxVeQxtdvgaKK6MppFm2MQb2uqK6lHNG6oSbkze1aqyg6AqhhyJ+X9QHgCjL63ErLOb1KkYoyLZ94ddVaA3SD4Gn5PysPCsoOoeCCbxay0bR7O4e3ANoJJqndc3G58vsmo7+XsZPUjsA+XclzwuK9rSfV/w+UeS1gCSHgiF1N/+0zjfwWVLZjxxt7mEVCNO2BcjNKQVwUnSkdsxrCVqixA6IMrI8GTp3NOhnaw18RLCdtxMg1fVQlCWMZJrkxe88Lyj607iuUHeMIjsBRJunRF75hdJh/lkbe8jSyK9Pyxx7eJPTn+W9kA9O5HlB0VNNCm/85ijx9cjzYwb363X/uvw+O8xnqjbKFRuZfH29P5a6Lmg5GUJ7mIOCFrkJKskLil6iYRvCIwtFVReofC+yM6JOotWdVJalxeBvi1JzcinkesBSsVAQ+MQOLsp3myQFRas6abPwQk5HnqZPV0fBCAxSRtFAN2/36AlaScriSEk1aGrAC/VRIs1Lljb7vKus0SGpa22r0ltgkqygaICZUQmbEwtFVgUYbmj0aSfpJ261NDs8GXr7cJIUFK3soVjBq7gplMgCSwcFBTBIq6gb5B7pOzRVsQBIQdHKINbAhxdZI2UKyJ9G9MEkWV2235SwmMXI+KqoewbS5swDBijzDTwT098BF9Q8o3b01TmLUAAL9eexNyYt/mYTk5T4uVxdMEkSBdP7NgNdFCQpQdG6erzAC/gdRZISx8rweQAMUJCkLNyIcpQC2Gu6flJoxlJAFmU2wNZEM2ODVdfJFV1lP9SZHkaeJAVFa94BVgFid0CZsQtsTmDAJjd3sFtS57rSg7GSlKBooYpe/whoFpG+BMCfaa/AJEsU7Ain+UVNSgHUdN0FeRRYF4hXIVBE6XE10YCpLfMZlSac5he1FQVAf6B84MsnAokUyqRcuIdTRXPPPIZsCBR9VQ9nj94AlSQFRf/gBvjiD8zPo0xxAvdZmX4LxgcKJvoeTtGBUAC+fnN5L8+xjI1TVl6nwjeRLrcbpKVa76rQ9+emhAJo6Y8a54qvHQfOUCrvwL1Spi8Hj8XFPtXKHWPZO0kIiqatwS8gJjuUClpP3VWuOmCQT0U//4E+IluhIKkfKKZIe9Ro3yAWe5SySnC/m2X4bZgnsd5VV7wxFs+SlLMjtEdAx4UYzAnxGXxJwy/EbqIgoQ32FQ0JBdCn7C22POWRhfif/5h0nj3MtgpgjoSica1MH78kFQXAq6c5yswhYs4a5aoJeIhvo6En30NX+9rh3+qBcZ9GkhIULXIbir34yLh1lPMmEcwsbBfMkRY/a22wryhFKIA8rZ4+UOoAEUrUqJcp8F3Q7PvQhuG/lw165nVVUQDcekqijPUNkRldMcQ+sqRpY8zC38wWvZ/FRkGeFhQtKniKLyMKA49xnybfGdHYDDx5l4Y2zkFkKQqAvbV0QrmsDxHwVxgm6UfUdYEdMMa3uFvB3wrooShPCIpmXnFYy8HTXTIYJtN71gTT5MWgs1j3ujgH0Y1QACP6MaNcgHJBCZ7LOXkYZtyC52hZKKiBATRJcAP6g+tCKIAS46xkyUI5a+PCE11qGKpRiDRrsAmGWIS2hJzoa5hNFNVoQdFyewyTqsCzuPsihgq6T7143MwQNPUTYEcfFLdRVCMGRcvVMYyVzcFTfFQxXHCBJ6oZ/AgIL4AsPR7lg1AAG9ZGv9vBUHbfhYct06gQjJ78mDV3FHAOfTht6SHZ37ofkH8tVEv5+zl14SGlGqo0LvBUztjcicAp9Mncoccj9FFUIwRFq1xsVLB3LbiXe+yg0rUAT3ZEY9cCwjf9q/Q7sHcoShOCopUmNqpY9YUPd+hubFTL5ODZ/CqioTcizEJ7wor0k3prQgE02MOgiq1Nvyz53Et0M6iT7EX5oOUHDsW/GcRfCS6jKE0IiuZWgMiufxeAxl/uMqiXdSACboBo5pUIodvBF2mcg9xW9Yoj15Po0kCCoN4v3UAp154nbSSwThCNKS2gO3522CbtkhHaVENRRx8UrVcYI5HdGW5Og///Vk23UFlM1/kAiYIlREPe6PIJL5cIPRnywRi2pvQF0LwvDz6RRC7LrmYynXQ6cw085OncIDJTypHT+C1Dj399MbpZGyjK6IOiKZwZxmblQ3TcKoo6DrzYNLQtfMVYufMUBcDcWRB9eBiLRgkidUQTm8PKoQs4ZfrKnY8SGX1QNFE3gzEYJiBaTgpFdgteqxraEZand+bmUCKlOzqyAyp/Z2HEggFEboFo3GHhW3j7bYreE9xFiZQ+KJquksIoWdkExCCPxq0HHsKPh9v05NYKojYOKf3YT+7vPYxMugKC2PJngxxEiJ9o7fmhwW83CFEiFMBVsrPA0ipjNKpniMsnSgzhdVwvdDO4gAKf0w6AV31QNFMlj88XfLkQm5yNEkd4mQUK5qELN4Gqs1g01gdFs5XS+FxB34U4TVHCLsCrDFGwDF24yfCy9ceEoGi+5haf53pyIV5OShFCG79EMXQIAFNGXtcGJcakoGi+y9rGp8gPHIhdE2V28BonxbR0xVi4yaJEihgUzece0/ioYHWBl8gqQkhil1Icwi0zynSoWAmkxM3wFb46eD+73HbgRRIBSgQ3eIE2Cqxc+A7vN2+BI80KiuYrnLYe3qGxbvvwQmeU6fgQv7zquMKVEdaVQYm8Nij6Yf5yn7SRwd5OR/BqW5TJQuyayhgGj5FzXUVtxuswqn4oZ3TeJBuo5aXXxwuYoGWjzBTiVkOB11M0iuRUXUWiIT0o+nHuaDFdlZOdqjCvsYJMfXZqFxwwxhmNGAgulC1KI8a83SGEK4wlUUSR6BVGzfZi8DEYLErLSTfngHnqKGOPIE7+GEVNxfJ+ldFWJkaA2YbfnBCrRANlGjeI0V49czswzvJ2UWanDYr+9yqhVCoBsekW1bsSe8amVUWfsH1DgQ//YiuUSvcgJk4aRQ1ftWA1U64niL51QdH/Zn4HpfIuCF5zN35S/K/MUe2HLij6X61gx1EBvAiWwFWuEn/QtxTE089HY4/Hv8oCNRUQf/lN1aP2JjNmu6ILiv6X26FcrQdR62VQd1a1h4IC856Nri4o+l/OSaJcpgXR8vP6d/aFM2ovo0zixx8x/A7VV0iMUa7ahSg5Q5SpaSaqAYRKooTl6IKi//W6NsrZTYj9YixrojnG1GGcMBeneRnDr8+LFj8O8QRR8YdIuRp5zznBMkaJsTYo+g0OiJHmIot6eZS6urrGpRnwNgPT2qDoN4A5hul0IQKFFEpZTfiDvQ7kWCix1QZFvwFAFsN4B3i6ko2o27jhrwMlUOZTFxT99henjqHqLXgqf2MhEhvSPMY7u4syK11Q9Nvf/CSGsr8deJ5RB0PYBcIv9Y25GbhX7xak4e0/3BqGq03gSdx5EZF8M+ZEOa3nbwZODb9Dmyr+CrA+W/AMiyuG6lN2KqrM6BP8UB8dWsPbf/VqqOBtcvCoZh7DZUF04jyyv1CmpAuKfvvDTaKKt2rBI5ZJVEj6pMN+Ze621kQ9q/yGt//x66hULDfvP0eXQZV0j3bWa8OYyoqDxo7J96aZwFmjRuqUA76K7iRtJ0HNj+U2Of8orIax92UYo486Vv6QAwanuaqiRibBvlBYVEMJSxsU/caPQ7Q686ZPOy91qtuolU6AlIuCC7ByYtHWBkW/wU+TBlIUO7PzyIVQvcpxlfeQIunS1/Z6ECpAibG6vaQIb4JcHqmsanI9/15URt1WIpHLtbqT0uA43WW3GRvJPn0IUWI1cVso0dEFRb+JnI2FsbG+ONvUGUbeuHg2eGDqfTnGKQUYE7vNalitA3MvaKgLin6Tym0xFukCL0F6Bsy9oE9120MW3kIcbIyctfKZyQFTYO4FzXRB0W9hWluM2HXJjhAfcPeCdrqg6LdwgypGyFq7oOZbnMP8X/otxrShV+YZy517GJX0BHQKrHWbDcqcdEHRb0qFsoVRCA7OPfEFHjcBG4/qBrMLvGmMtngn4rXbrGUAdurZWRcU/aY1qVv4TPa8Bzr8ZQBIo8xAFxT9RtDNeq9Ixi6zQh2vKLPQBEW/0ST6V3wCa7twgCzNmrXZKNPWBEW/UTmlsoePSe1vwBFwTnL6KLVU3ieRhDcG91z38F7j+Qh4XOTc7tJCqaYmKPqNxx1kG8jmbU8FYLuwugFG+gJYS8YUb3yXU7mKZI3htOLDPdqsMVtJXwBDMy/O/5Vai3l9bKFSo5adLnNwtxNr9/5DXwBpyTLR2wP8bvt795nsXIMi/sMLxulkdvN1LnVdeNCGlej1hVIl5aCyBG9P4rq9hOs70d4nvYFwa5RqKxPHRvBmrjzrGE8epQbKjpEevJkrzYr2t1G3GXR8LwT+LinOMZ4Com47ePWOif1dWAVwRLk5/JF/dwT+LhnOoL2Mcmv4I3g3hP0uHca03bdRrg7/1cL3LPB32TJ6eNsYogP/1X63g/wyYo9Xnn40XDxLtn9PAn6Zubip5IJcwcIwiT818t4M/mU+UHAmh4OIDQHV96mQX+aC1N2gkYWhpn9SYt/xML+MY6NgQLx6TJwGtPGdE/3bbFHQSIBohwq2A3/bvy+M+3VOtDS5MyqVwqopD29mu6FE3YWfzhYKxAPiTiDZXH4zXBol0t2f0eOoUcz9Z0rxPhj6+xxQprhpwT+cwRi1PgGg7b3HgL+Qa6NUMTlddguTj1kDKWaDMuJ7DPgb7fFp3vFAv1HCxmd57wX/SlN8lndI7K/kZ/A53nfF/FITC5/hPQn8tfrIdLWQYPyOhvgt6shidz9R9L4y+PdyO8hQXEJLXPR5Xxb2m+XGSGa1hU0kmca7G/A3yWWQyGsLd0PJFN8XxfwuiTyS2E34W+KKKta7Fei38WdIkCnAP7oBhrPeM8BfaBHoo8dd+OPSwDD2+zjIr5TIWqiS+fleb3VQrvPeBf6tJkkMVT04pEvqvb4Pb7/W5LOIMp2jT0o59mYtePvVEsethz9ldiMIMVrb+IeVnr4vCfy/wG9Os7WxbVleI1PfDXKg4lSm2WQ6nS/PB/+mtZ//B6jbCkW0sf2TAAAAAElFTkSuQmCC;shadow=1;" parent="1" vertex="1">
          <mxGeometry x="100" y="187" width="20" height="20" as="geometry" />
        </mxCell>
        <mxCell id="3u2YojZL_NNNf5w3evhY-19" value="6β-&#xa;hydroxycortisol" style="rounded=1;absoluteArcSize=1;arcSize=14;whiteSpace=wrap;strokeWidth=2;shadow=1;fontSize=13;" parent="1" vertex="1">
          <mxGeometry x="420" y="560" width="120" height="40" as="geometry" />
        </mxCell>
        <mxCell id="3u2YojZL_NNNf5w3evhY-87" value="" style="edgeStyle=orthogonalEdgeStyle;rounded=1;orthogonalLoop=1;jettySize=auto;html=1;entryX=0.9;entryY=0;entryDx=0;entryDy=0;entryPerimeter=0;endArrow=none;endFill=0;curved=0;flowAnimation=1;" parent="1" source="3u2YojZL_NNNf5w3evhY-25" target="3u2YojZL_NNNf5w3evhY-49" edge="1">
          <mxGeometry relative="1" as="geometry" />
        </mxCell>
        <mxCell id="3u2YojZL_NNNf5w3evhY-92" value="" style="edgeStyle=orthogonalEdgeStyle;rounded=1;orthogonalLoop=1;jettySize=auto;html=1;entryX=0.576;entryY=-0.025;entryDx=0;entryDy=0;entryPerimeter=0;curved=0;flowAnimation=1;" parent="1" source="3u2YojZL_NNNf5w3evhY-25" target="3u2YojZL_NNNf5w3evhY-26" edge="1">
          <mxGeometry relative="1" as="geometry">
            <Array as="points">
              <mxPoint x="279" y="370" />
              <mxPoint x="279" y="370" />
            </Array>
          </mxGeometry>
        </mxCell>
        <mxCell id="3u2YojZL_NNNf5w3evhY-25" value="5β-&#xa;Dihydrocortisone" style="rounded=1;absoluteArcSize=1;arcSize=14;whiteSpace=wrap;strokeWidth=2;shadow=1;fontSize=13;" parent="1" vertex="1">
          <mxGeometry x="210" y="320" width="120" height="40" as="geometry" />
        </mxCell>
        <mxCell id="3u2YojZL_NNNf5w3evhY-83" value="" style="edgeStyle=orthogonalEdgeStyle;rounded=1;orthogonalLoop=1;jettySize=auto;html=1;entryX=0.5;entryY=0;entryDx=0;entryDy=0;endArrow=none;endFill=0;curved=0;flowAnimation=1;" parent="1" source="3u2YojZL_NNNf5w3evhY-26" target="3u2YojZL_NNNf5w3evhY-49" edge="1">
          <mxGeometry relative="1" as="geometry" />
        </mxCell>
        <mxCell id="3u2YojZL_NNNf5w3evhY-93" value="" style="edgeStyle=orthogonalEdgeStyle;rounded=1;orthogonalLoop=1;jettySize=auto;html=1;entryX=0.422;entryY=0.994;entryDx=0;entryDy=0;entryPerimeter=0;curved=0;flowAnimation=1;" parent="1" source="3u2YojZL_NNNf5w3evhY-26" target="3u2YojZL_NNNf5w3evhY-25" edge="1">
          <mxGeometry relative="1" as="geometry">
            <mxPoint x="260" y="360" as="targetPoint" />
            <Array as="points">
              <mxPoint x="260" y="380" />
            </Array>
          </mxGeometry>
        </mxCell>
        <mxCell id="3u2YojZL_NNNf5w3evhY-26" value="5β-&#xa;Dihydrocortisol" style="rounded=1;absoluteArcSize=1;arcSize=14;whiteSpace=wrap;strokeWidth=2;shadow=1;fontSize=13;" parent="1" vertex="1">
          <mxGeometry x="210" y="400" width="120" height="40" as="geometry" />
        </mxCell>
        <mxCell id="3u2YojZL_NNNf5w3evhY-88" value="" style="edgeStyle=orthogonalEdgeStyle;rounded=1;orthogonalLoop=1;jettySize=auto;html=1;entryX=0.097;entryY=0.069;entryDx=0;entryDy=0;entryPerimeter=0;endArrow=none;endFill=0;curved=0;flowAnimation=1;" parent="1" source="3u2YojZL_NNNf5w3evhY-27" target="3u2YojZL_NNNf5w3evhY-49" edge="1">
          <mxGeometry relative="1" as="geometry" />
        </mxCell>
        <mxCell id="3u2YojZL_NNNf5w3evhY-27" value="5α-&#xa;Dihydrocortisol" style="rounded=1;absoluteArcSize=1;arcSize=14;whiteSpace=wrap;strokeWidth=2;shadow=1;fontSize=13;" parent="1" vertex="1">
          <mxGeometry x="210" y="480" width="120" height="40" as="geometry" />
        </mxCell>
        <mxCell id="3u2YojZL_NNNf5w3evhY-42" value="3α,5β-Tetrahydrocortisone" style="rounded=1;absoluteArcSize=1;arcSize=14;whiteSpace=wrap;strokeWidth=2;shadow=1;fontSize=13;" parent="1" vertex="1">
          <mxGeometry x="420" y="320" width="120" height="40" as="geometry" />
        </mxCell>
        <mxCell id="3u2YojZL_NNNf5w3evhY-43" value="3α,5β-Tetrahydrocortisol&#x9;&#x9;" style="rounded=1;absoluteArcSize=1;arcSize=14;whiteSpace=wrap;strokeWidth=2;shadow=1;fontSize=13;" parent="1" vertex="1">
          <mxGeometry x="420" y="400" width="120" height="40" as="geometry" />
        </mxCell>
        <mxCell id="3u2YojZL_NNNf5w3evhY-44" value="3α,5α-Tetrahydrocortisol" style="rounded=1;absoluteArcSize=1;arcSize=14;whiteSpace=wrap;strokeWidth=2;shadow=1;fontSize=13;" parent="1" vertex="1">
          <mxGeometry x="420" y="480" width="120" height="40" as="geometry" />
        </mxCell>
        <mxCell id="3u2YojZL_NNNf5w3evhY-94" value="" style="edgeStyle=orthogonalEdgeStyle;rounded=0;orthogonalLoop=1;jettySize=auto;html=1;entryX=0;entryY=0.5;entryDx=0;entryDy=0;exitX=0.101;exitY=1.069;exitDx=0;exitDy=0;exitPerimeter=0;flowAnimation=1;" parent="1" source="3u2YojZL_NNNf5w3evhY-49" target="3u2YojZL_NNNf5w3evhY-44" edge="1">
          <mxGeometry relative="1" as="geometry">
            <mxPoint x="370.0000000000002" y="499.6199999999999" as="sourcePoint" />
            <mxPoint x="460.0000000000002" y="499.6199999999999" as="targetPoint" />
          </mxGeometry>
        </mxCell>
        <mxCell id="3u2YojZL_NNNf5w3evhY-95" value="" style="edgeStyle=orthogonalEdgeStyle;rounded=0;orthogonalLoop=1;jettySize=auto;html=1;flowAnimation=1;" parent="1" source="3u2YojZL_NNNf5w3evhY-49" target="3u2YojZL_NNNf5w3evhY-43" edge="1">
          <mxGeometry relative="1" as="geometry" />
        </mxCell>
        <mxCell id="3u2YojZL_NNNf5w3evhY-96" value="" style="edgeStyle=orthogonalEdgeStyle;rounded=0;orthogonalLoop=1;jettySize=auto;html=1;entryX=0;entryY=0.5;entryDx=0;entryDy=0;exitX=0.901;exitY=1.069;exitDx=0;exitDy=0;exitPerimeter=0;flowAnimation=1;" parent="1" source="3u2YojZL_NNNf5w3evhY-49" target="3u2YojZL_NNNf5w3evhY-42" edge="1">
          <mxGeometry relative="1" as="geometry" />
        </mxCell>
        <mxCell id="3u2YojZL_NNNf5w3evhY-49" value="3a-hydroxysteroid dehydrogenase" style="text;whiteSpace=wrap;align=center;verticalAlign=middle;strokeColor=default;rotation=-90;fillColor=#FFFFFF;dashed=1;rounded=0;glass=0;fontSize=12;" parent="1" vertex="1">
          <mxGeometry x="270" y="410" width="200" height="20" as="geometry" />
        </mxCell>
        <mxCell id="3u2YojZL_NNNf5w3evhY-76" style="edgeStyle=orthogonalEdgeStyle;rounded=1;orthogonalLoop=1;jettySize=auto;html=1;exitX=0.25;exitY=1;exitDx=0;exitDy=0;entryX=0;entryY=0.5;entryDx=0;entryDy=0;curved=0;flowAnimation=1;" parent="1" source="3u2YojZL_NNNf5w3evhY-53" target="3u2YojZL_NNNf5w3evhY-26" edge="1">
          <mxGeometry relative="1" as="geometry">
            <Array as="points">
              <mxPoint x="190" y="420" />
            </Array>
          </mxGeometry>
        </mxCell>
        <mxCell id="3u2YojZL_NNNf5w3evhY-79" style="edgeStyle=orthogonalEdgeStyle;rounded=1;orthogonalLoop=1;jettySize=auto;html=1;exitX=0.919;exitY=1.031;exitDx=0;exitDy=0;entryX=0;entryY=0.5;entryDx=0;entryDy=0;exitPerimeter=0;curved=0;flowAnimation=1;" parent="1" source="3u2YojZL_NNNf5w3evhY-53" target="3u2YojZL_NNNf5w3evhY-25" edge="1">
          <mxGeometry relative="1" as="geometry">
            <Array as="points" />
          </mxGeometry>
        </mxCell>
        <mxCell id="3u2YojZL_NNNf5w3evhY-53" value="5β-reductase" style="text;whiteSpace=wrap;align=center;verticalAlign=middle;strokeColor=default;rotation=-90;fillColor=default;dashed=1;rounded=0;glass=0;fontSize=12;" parent="1" vertex="1">
          <mxGeometry x="120" y="380" width="120" height="20" as="geometry" />
        </mxCell>
        <mxCell id="3u2YojZL_NNNf5w3evhY-56" value="11β-HSD1" style="text;whiteSpace=wrap;align=center;verticalAlign=middle;strokeColor=default;rotation=0;fillColor=default;dashed=1;rounded=0;glass=0;fontSize=12;" parent="1" vertex="1">
          <mxGeometry x="60" y="290" width="60" height="20" as="geometry" />
        </mxCell>
        <mxCell id="3u2YojZL_NNNf5w3evhY-61" value="" style="edgeStyle=orthogonalEdgeStyle;rounded=1;orthogonalLoop=1;jettySize=auto;html=1;exitX=0.25;exitY=1;exitDx=0;exitDy=0;entryX=0;entryY=0.5;entryDx=0;entryDy=0;flowAnimation=1;shadow=0;curved=0;endArrow=none;endFill=0;" parent="1" source="3u2YojZL_NNNf5w3evhY-9" target="3u2YojZL_NNNf5w3evhY-51" edge="1">
          <mxGeometry relative="1" as="geometry">
            <mxPoint x="20" y="280" as="sourcePoint" />
            <mxPoint x="420" y="585" as="targetPoint" />
          </mxGeometry>
        </mxCell>
        <mxCell id="3u2YojZL_NNNf5w3evhY-65" style="edgeStyle=orthogonalEdgeStyle;rounded=1;orthogonalLoop=1;jettySize=auto;html=1;exitX=1;exitY=0.5;exitDx=0;exitDy=0;entryX=0;entryY=0.5;entryDx=0;entryDy=0;flowAnimation=1;curved=0;" parent="1" source="3u2YojZL_NNNf5w3evhY-51" target="3u2YojZL_NNNf5w3evhY-19" edge="1">
          <mxGeometry relative="1" as="geometry" />
        </mxCell>
        <mxCell id="3u2YojZL_NNNf5w3evhY-51" value="6β-hydroxylase [CYP3A4]" style="text;whiteSpace=wrap;align=center;verticalAlign=middle;strokeColor=default;rotation=0;fillColor=none;dashed=1;rounded=0;glass=0;fontSize=12;" parent="1" vertex="1">
          <mxGeometry x="120" y="570" width="200" height="20" as="geometry" />
        </mxCell>
        <mxCell id="3u2YojZL_NNNf5w3evhY-63" value="" style="edgeStyle=orthogonalEdgeStyle;rounded=1;orthogonalLoop=1;jettySize=auto;html=1;exitX=0.25;exitY=1;exitDx=0;exitDy=0;entryX=0;entryY=0.5;entryDx=0;entryDy=0;curved=0;flowAnimation=1;endArrow=none;endFill=0;" parent="1" source="3u2YojZL_NNNf5w3evhY-9" target="3u2YojZL_NNNf5w3evhY-55" edge="1">
          <mxGeometry relative="1" as="geometry">
            <mxPoint x="20" y="280" as="sourcePoint" />
            <mxPoint x="220" y="500" as="targetPoint" />
          </mxGeometry>
        </mxCell>
        <mxCell id="3u2YojZL_NNNf5w3evhY-64" style="edgeStyle=orthogonalEdgeStyle;rounded=1;orthogonalLoop=1;jettySize=auto;html=1;exitX=1;exitY=0.5;exitDx=0;exitDy=0;entryX=0;entryY=0.5;entryDx=0;entryDy=0;flowAnimation=1;curved=0;" parent="1" source="3u2YojZL_NNNf5w3evhY-55" target="3u2YojZL_NNNf5w3evhY-27" edge="1">
          <mxGeometry relative="1" as="geometry" />
        </mxCell>
        <mxCell id="3u2YojZL_NNNf5w3evhY-55" value="5α-reductase" style="text;whiteSpace=wrap;align=center;verticalAlign=middle;strokeColor=default;rotation=0;fillColor=none;dashed=1;rounded=0;glass=0;fontSize=12;" parent="1" vertex="1">
          <mxGeometry x="80" y="490" width="80" height="20" as="geometry" />
        </mxCell>
        <mxCell id="3u2YojZL_NNNf5w3evhY-52" value="11β-HSD2" style="text;whiteSpace=wrap;align=center;verticalAlign=middle;strokeColor=default;rotation=0;fillColor=default;dashed=1;rounded=0;glass=0;fontSize=12;" parent="1" vertex="1">
          <mxGeometry x="80" y="210" width="60" height="20" as="geometry" />
        </mxCell>
        <mxCell id="3u2YojZL_NNNf5w3evhY-75" style="edgeStyle=orthogonalEdgeStyle;rounded=1;orthogonalLoop=1;jettySize=auto;html=1;exitX=0;exitY=0.5;exitDx=0;exitDy=0;entryX=0.508;entryY=1.129;entryDx=0;entryDy=0;entryPerimeter=0;curved=0;flowAnimation=1;" parent="1" source="3u2YojZL_NNNf5w3evhY-56" target="3u2YojZL_NNNf5w3evhY-9" edge="1">
          <mxGeometry relative="1" as="geometry" />
        </mxCell>
        <mxCell id="n_hTqc2aX5hB9C0_UTEV-53" value="" style="group;strokeWidth=4;dashed=1;shadow=0;" vertex="1" connectable="0" parent="1">
          <mxGeometry x="92" y="313" width="16.93" height="19.61" as="geometry" />
        </mxCell>
        <mxCell id="n_hTqc2aX5hB9C0_UTEV-54" value="" style="ellipse;whiteSpace=wrap;html=1;fillColor=default;strokeWidth=1;shadow=1;" vertex="1" parent="n_hTqc2aX5hB9C0_UTEV-53">
          <mxGeometry x="0.5728195488721803" y="0.8913636363636364" width="15.911654135338344" height="17.699935064935065" as="geometry" />
        </mxCell>
        <mxCell id="n_hTqc2aX5hB9C0_UTEV-58" value="⋅" style="ellipse;whiteSpace=wrap;html=1;aspect=fixed;fillColor=default;strokeWidth=0.5;" vertex="1" parent="n_hTqc2aX5hB9C0_UTEV-53">
          <mxGeometry y="3.310779220779221" width="5.091703607503606" height="5.091703607503606" as="geometry" />
        </mxCell>
        <mxCell id="n_hTqc2aX5hB9C0_UTEV-55" value="⋅" style="ellipse;whiteSpace=wrap;html=1;aspect=fixed;fillColor=default;strokeWidth=0.5;" vertex="1" parent="n_hTqc2aX5hB9C0_UTEV-53">
          <mxGeometry x="11.838270676691728" y="11.078376623376624" width="5.091703607503606" height="5.091703607503606" as="geometry" />
        </mxCell>
        <mxCell id="n_hTqc2aX5hB9C0_UTEV-56" value="⋅" style="ellipse;whiteSpace=wrap;html=1;aspect=fixed;fillColor=default;strokeWidth=0.5;" vertex="1" parent="n_hTqc2aX5hB9C0_UTEV-53">
          <mxGeometry y="11.078376623376624" width="5.091703607503606" height="5.091703607503606" as="geometry" />
        </mxCell>
        <mxCell id="n_hTqc2aX5hB9C0_UTEV-57" value="⋅" style="ellipse;whiteSpace=wrap;html=1;aspect=fixed;fillColor=default;strokeWidth=0.5;" vertex="1" parent="n_hTqc2aX5hB9C0_UTEV-53">
          <mxGeometry x="11.838270676691728" y="3.310779220779221" width="5.091703607503606" height="5.091703607503606" as="geometry" />
        </mxCell>
        <mxCell id="n_hTqc2aX5hB9C0_UTEV-59" value="⋅" style="ellipse;whiteSpace=wrap;html=1;aspect=fixed;fillColor=default;strokeWidth=0.5;" vertex="1" parent="n_hTqc2aX5hB9C0_UTEV-53">
          <mxGeometry x="5.919135338345864" width="5.091703607503606" height="5.091703607503606" as="geometry" />
        </mxCell>
        <mxCell id="n_hTqc2aX5hB9C0_UTEV-60" value="⋅" style="ellipse;whiteSpace=wrap;html=1;aspect=fixed;fillColor=default;strokeWidth=0.5;" vertex="1" parent="n_hTqc2aX5hB9C0_UTEV-53">
          <mxGeometry x="5.919135338345864" y="14.516493506493509" width="5.091703607503606" height="5.091703607503606" as="geometry" />
        </mxCell>
        <mxCell id="n_hTqc2aX5hB9C0_UTEV-61" value="&lt;div style=&quot;&quot;&gt;&lt;span style=&quot;background-color: initial;&quot;&gt;&lt;font style=&quot;font-size: 12px;&quot;&gt;⋅&lt;/font&gt;&lt;/span&gt;&lt;/div&gt;" style="ellipse;whiteSpace=wrap;html=1;aspect=fixed;fillColor=none;strokeWidth=0.5;align=center;" vertex="1" parent="n_hTqc2aX5hB9C0_UTEV-53">
          <mxGeometry x="5.919135338345864" y="7.2582467532467545" width="5.091703607503606" height="5.091703607503606" as="geometry" />
        </mxCell>
      </root>
    </mxGraphModel>
  </diagram>
</mxfile>
